<!--?xml version="1.0" standalone="no"?-->
              <svg id="sw-js-blob-svg" viewBox="0 0 100 100" xmlns="http://www.w3.org/2000/svg" version="1.1">
                    <defs> 
                        <linearGradient id="sw-gradient" x1="0" x2="1" y1="1" y2="0">
                            <stop id="stop1" stop-color="rgba(247, 168, 212, 1)" offset="0%"></stop>
                            <stop id="stop2" stop-color="rgba(247, 168, 212, 1)" offset="100%"></stop>
                        </linearGradient>
                    </defs>
                <path fill="url(#sw-gradient)" d="M21.7,-35.1C26.2,-30.9,26.6,-21.6,30.5,-13.7C34.4,-5.9,41.8,0.6,43.5,8C45.1,15.3,40.9,23.6,34.2,27.5C27.5,31.4,18.2,30.9,10.7,30.5C3.1,30,-2.7,29.5,-9.2,28.7C-15.7,28,-23,27.1,-28,23.2C-33,19.3,-35.8,12.4,-35.6,5.9C-35.3,-0.7,-32,-6.9,-28.7,-12.7C-25.4,-18.5,-22.1,-23.8,-17.3,-27.8C-12.5,-31.8,-6.2,-34.4,1.2,-36.3C8.6,-38.1,17.2,-39.2,21.7,-35.1Z" width="100%" height="100%" transform="translate(50 50)" stroke-width="0" style="transition: all 0.3s ease 0s;"></path>
              </svg>